<?xml version="1.0" encoding="utf-8"?>
<!DOCTYPE svg
  PUBLIC '-//W3C//DTD SVG 1.0//EN'
  'http://www.w3.org/TR/2001/REC-SVG-20010904/DTD/svg10.dtd'>
<svg width="232" height="250" preserveAspectRatio="xMinYMin meet" viewBox="0 0 232 250" xmlns="http://www.w3.org/2000/svg" version="1.0" fill-rule="evenodd" xmlns:xlink="http://www.w3.org/1999/xlink">
	<title>...</title>
	<desc>...</desc>
	<clipPath id="clip">
		<rect x="0" y="0" width="232" height="250"/>
	</clipPath>
	<g id="group" transform="scale(1,-1) translate(0,-250)" style="clip-path: url(#clip)">
		<g transform="">
			<rect x="8" y="181" width="216" height="61" rx="8" ry="8" style="stroke: rgb(9%,19%,29%); stroke-linecap: butt; stroke-width: 1.2; fill: rgb(90%,94%,96%); fill-rule: evenodd;"/>
			<text x="20" y="224" style="font-family: Helvetica-Bold; font-size: 8.6px;fill: rgb(9%,19%,29%); stroke:none;" transform="translate(0,448) scale(1,-1)">1. OPEN-ENDED AGENT</text>
			<text x="20" y="208" style="font-family: Helvetica; font-size: 7.5px;fill: rgb(13%,13%,13%); stroke:none;" transform="translate(0,416) scale(1,-1)">DeepAgents: broad reasoning and tool use</text>
			<text x="20" y="191" style="font-family: Helvetica-Oblique; font-size: 6.8px;fill: rgb(34%,38%,41%); stroke:none;" transform="translate(0,382) scale(1,-1)">Useful when the path is not yet known</text>
			<path d="M 116,181 L 116,163 Z" style="stroke: rgb(9%,19%,29%); stroke-linecap: butt; stroke-width: 1.3;"/>
			<polygon points="112 166, 120 166, 116 160" style="stroke: rgb(9%,19%,29%); stroke-linecap: butt; stroke-width: 1; fill: rgb(9%,19%,29%); fill-rule: evenodd;"/>
			<rect x="8" y="88" width="216" height="69" rx="8" ry="8" style="stroke: rgb(64%,16%,16%); stroke-linecap: butt; stroke-width: 1.2; fill: rgb(100%,94%,90%); fill-rule: evenodd;"/>
			<text x="20" y="139" style="font-family: Helvetica-Bold; font-size: 8.6px;fill: rgb(64%,16%,16%); stroke:none;" transform="translate(0,278) scale(1,-1)">2. HYBRID WORKFLOW</text>
			<text x="20" y="123" style="font-family: Helvetica; font-size: 7.5px;fill: rgb(13%,13%,13%); stroke:none;" transform="translate(0,246) scale(1,-1)">Code for stable work + model judgment</text>
			<text x="20" y="98" style="font-family: Helvetica-Oblique; font-size: 6.8px;fill: rgb(34%,38%,41%); stroke:none;" transform="translate(0,196) scale(1,-1)">The normal PLaND target</text>
			<path d="M 116,88 L 116,70 Z" style="stroke: rgb(9%,19%,29%); stroke-linecap: butt; stroke-width: 1.3;"/>
			<polygon points="112 73, 120 73, 116 67" style="stroke: rgb(9%,19%,29%); stroke-linecap: butt; stroke-width: 1; fill: rgb(9%,19%,29%); fill-rule: evenodd;"/>
			<rect x="8" y="3" width="216" height="61" rx="8" ry="8" style="stroke: rgb(18%,49%,19%); stroke-linecap: butt; stroke-width: 1.2; fill: rgb(92%,96%,92%); fill-rule: evenodd;"/>
			<text x="20" y="46" style="font-family: Helvetica-Bold; font-size: 8.6px;fill: rgb(18%,49%,19%); stroke:none;" transform="translate(0,92) scale(1,-1)">3. MOSTLY DETERMINISTIC GRAPH</text>
			<text x="20" y="30" style="font-family: Helvetica; font-size: 7.5px;fill: rgb(13%,13%,13%); stroke:none;" transform="translate(0,60) scale(1,-1)">LangGraph steps + intelligence where needed</text>
			<text x="20" y="13" style="font-family: Helvetica-Oblique; font-size: 6.8px;fill: rgb(34%,38%,41%); stroke:none;" transform="translate(0,26) scale(1,-1)">Most structured endpoint when evidence supports it</text>
		</g>
	</g>
</svg>
